<svg height="512pt" viewBox="0 -73 512 512" width="512pt" xmlns="http://www.w3.org/2000/svg"><path d="m491.917969 318.199219c6.9375 0 12.574219 5.628906 12.574219 12.566406 0 3.476563-1.410157 6.621094-3.683594 8.894531-2.273438 2.273438-5.417969 3.683594-8.890625 3.683594h-154.183594v-40.421875l87.496094-48.664063c4.726562 4.433594 8.609375 9.75 11.40625 15.691407.890625-.070313 1.78125-.121094 2.691406-.121094 17.421875 0 31.550781 14.128906 31.550781 31.539063 0 6.191406-1.792968 11.957031-4.867187 16.832031zm0 0" fill="#96e2f1"/><path d="m439.953125 269.84375c-.207031-.003906-.414063-.015625-.625-.015625-.910156 0-1.800781.046875-2.691406.117187-2.796875-5.9375-6.679688-11.253906-11.40625-15.6875l-87.496094 48.660157v40.425781h28.921875c32.238281-16.753906 57.382812-42.773438 73.296875-73.5zm0 0" fill="#76d6e2"/><path d="m178.136719 38.792969v53.058593h-98.652344c-7.910156 0-14.316406-6.40625-14.316406-14.316406 0-7.902344 6.40625-14.308594 14.316406-14.308594h12.839844c-3.707031-6.210937-5.648438-13.609374-5.097657-21.488281 1.261719-18.226562 16.050782-32.953125 34.285157-34.148437 15.800781-1.03125 29.628906 7.902344 35.835937 21.121094.640625-.050782 1.28125-.082032 1.933594-.082032 7.878906 0 14.820312 4.046875 18.855469 10.164063zm0 0" fill="#96e2f1"/><path d="m92.371094 76.851562c.355468-7.699218 6.984375-13.625 14.691406-13.625 5.417969 0 9.511719-5.039062 8.257812-10.308593-.847656-3.554688-1.179687-7.308594-.90625-11.179688.992188-14.335937 10.355469-26.503906 23.179688-31.625-4.929688-1.960937-10.375-2.894531-16.085938-2.523437-18.230468 1.195312-33.023437 15.921875-34.28125 34.148437-.550781 7.878907 1.390626 15.277344 5.09375 21.488281h-12.835937c-8.144531 0-14.695313 6.789063-14.300781 15.011719.367187 7.695313 7 13.613281 14.707031 13.613281h26.78125c-8.136719 0-14.683594-6.777343-14.300781-15zm0 0" fill="#7cd8e5"/><path d="m424.367188 231.867188c3.296874-3.3125 8.78125-.019532 7.421874 4.457031-15.300781 50.296875-53.339843 92.980469-106.628906 112.117187-77.535156 27.835938-161.894531-3.324218-204-70.324218l-21.699218-130.410157c13.179687-55.945312 53.800781-104.496093 111.585937-124.34375 45.039063-15.460937 92.210937-11.164062 131.945313 8.382813 3.082031 1.511718 2.042968 6.144531-1.390626 6.214844-11.976562.253906-24.152343 2.414062-36.089843 6.699218-59.007813 21.1875-89.878907 87.304688-68.238281 146.164063 21.507812 58.515625 86.242187 88.824219 145.03125 67.71875 16.371093-5.878907 30.550781-15.121094 42.0625-26.675781zm0 0" fill="#f6c14b"/><path d="m165.535156 229.5-5.691406-34.191406c-10.507812-63.164063 18.769531-126.742188 74.300781-158.625 9.199219-5.28125 19.007813-9.761719 29.367188-13.320313 9.804687-3.367187 19.714843-5.792969 29.625-7.332031-26.726563-4.136719-54.796875-2.035156-82.089844 7.332031-57.785156 19.847657-98.40625 68.398438-111.585937 124.34375l21.699218 130.410157c36.363282 57.859374 104.238282 88.984374 172.015625 78.472656-1.007812-.15625-2.019531-.324219-3.027343-.5-64.175782-11.125-113.925782-62.335938-124.613282-126.589844zm0 0" fill="#f2b02a"/><path d="m338.394531 73.808594c43.46875 0 78.703125 35.238281 78.703125 78.703125 0 43.457031-35.234375 78.695312-78.703125 78.695312-43.464843 0-78.691406-35.238281-78.691406-78.695312 0-43.464844 35.226563-78.703125 78.691406-78.703125zm0 0" fill="#6ddca5"/><path d="m312.992188 152.511719c0-34.113281 21.699218-63.148438 52.050781-74.066407-8.324219-2.996093-17.292969-4.636718-26.648438-4.636718-43.464843 0-78.691406 35.238281-78.691406 78.703125 0 43.457031 35.226563 78.695312 78.691406 78.695312 9.355469 0 18.324219-1.640625 26.648438-4.636719-30.351563-10.917968-52.050781-39.953124-52.050781-74.058593zm0 0" fill="#2fccae"/><path d="m389.199219 152.507812c0 28.058594-22.742188 50.804688-50.800781 50.804688-28.058594 0-50.800782-22.746094-50.800782-50.804688 0-28.054687 22.742188-50.800781 50.800782-50.800781 28.058593 0 50.800781 22.746094 50.800781 50.800781zm0 0" fill="#cde9e9"/><path d="m389.199219 152.507812c0 28.058594-22.742188 50.804688-50.800781 50.804688-28.058594 0-50.800782-22.746094-50.800782-50.804688 0-28.054687 22.742188-50.800781 50.800782-50.800781 28.058593 0 50.800781 22.746094 50.800781 50.800781zm0 0" fill="#cde9e9"/><path d="m346.976562 143.929688c4.738282 4.738281 4.738282 12.417968 0 17.152343-4.734374 4.738281-12.414062 4.738281-17.152343 0-4.746094-4.734375-4.746094-12.414062 0-17.152343 4.738281-4.734376 12.417969-4.734376 17.152343 0zm0 0" fill="#d6451e"/><path d="m253.625 262.207031c0-8.261719-3.21875-16.03125-9.046875-21.855469-5.839844-5.859374-13.613281-9.085937-21.894531-9.085937h-8.179688c.238282-2.074219.359375-4.171875.359375-6.277344 0-28.4375-21.714843-51.902343-49.433593-54.6875-13.449219-21.398437-36.480469-35.40625-61.773438-37.398437-1.609375 4.867187-3.015625 9.804687-4.195312 14.804687l21.699218 130.410157c3.285156 5.230468 6.828125 10.238281 10.605469 15.019531h90.917969c17.058594 0 30.941406-13.875 30.941406-30.929688zm0 0" fill="#f2b02a"/><path d="m233.9375 250.953125c2.886719 2.882813 4.667969 6.859375 4.667969 11.253906 0 8.792969-7.128907 15.910157-15.921875 15.910157h-199.25c-4.398438 0-8.371094-1.78125-11.257813-4.65625-2.882812-2.882813-4.664062-6.859376-4.664062-11.253907 0-8.792969 7.128906-15.921875 15.921875-15.921875h17.960937c-5.828125-9.773437-9.191406-21.1875-9.191406-33.394531 0-36.015625 29.207031-65.222656 65.226563-65.222656 26.125 0 48.644531 15.359375 59.058593 37.527343 1.128907-.089843 2.261719-.148437 3.414063-.148437 22.058594 0 39.941406 17.882813 39.941406 39.941406 0 7.832031-2.261719 15.128907-6.15625 21.296875h28.996094c4.394531 0 8.382812 1.78125 11.253906 4.667969zm0 0" fill="#96e2f1"/><path d="m49.960938 262.148438c.03125-8.847657 7.546874-15.863282 16.394531-15.863282 7.6875 0 13.195312-7.402344 11-14.769531-1.757813-5.902344-2.703125-12.152344-2.703125-18.625 0-28.589844 18.414062-52.875 44.023437-61.679687-6.996093-2.410157-14.53125-3.667969-22.378906-3.535157-34.410156.585938-62.761719 28.332031-64.046875 62.722657-.492188 13.144531 2.921875 25.453124 9.144531 35.886718h-17.488281c-8.847656 0-16.363281 7.015625-16.394531 15.863282-.015625 4.417968 1.769531 8.417968 4.664062 11.3125 2.886719 2.875 6.859375 4.65625 11.257813 4.65625h42.449218c-4.398437 0-8.371093-1.78125-11.257812-4.65625-2.894531-2.894532-4.679688-6.894532-4.664062-11.3125zm0 0" fill="#7cd8e5"/><path d="m280.085938 152.507812c0 32.15625 26.160156 58.316407 58.3125 58.316407 32.152343 0 58.3125-26.160157 58.3125-58.316407 0-32.152343-26.160157-58.3125-58.3125-58.3125-32.152344 0-58.3125 26.160157-58.3125 58.3125zm100.941406-7.507812h-6.210938c-4.148437 0-7.507812 3.363281-7.507812 7.507812 0 4.148438 3.359375 7.511719 7.507812 7.511719h6.210938c-3.140625 17.863281-17.257813 31.980469-35.121094 35.117188v-6.207031c0-4.148438-3.359375-7.511719-7.507812-7.511719-4.148438 0-7.511719 3.363281-7.511719 7.511719v6.207031c-17.859375-3.136719-31.976563-17.257813-35.117188-35.117188h6.207031c4.148438 0 7.511719-3.363281 7.511719-7.511719 0-4.144531-3.363281-7.507812-7.511719-7.507812h-6.207031c3.140625-17.863281 17.257813-31.980469 35.117188-35.117188v6.207032c0 4.148437 3.363281 7.507812 7.511719 7.507812 4.148437 0 7.507812-3.359375 7.507812-7.507812v-6.207032c17.863281 3.136719 31.980469 17.253907 35.121094 35.117188zm0 0"/><path d="m338.398438 132.867188c-2.628907 0-5.175782.515624-7.53125 1.492187l-7.269532-7.269531c-2.933594-2.933594-7.6875-2.933594-10.621094 0-2.929687 2.933594-2.929687 7.6875 0 10.621094l7.269532 7.269531c-.976563 2.355469-1.488282 4.902343-1.488282 7.527343 0 5.25 2.042969 10.179688 5.753907 13.886719 3.707031 3.710938 8.640625 5.753907 13.886719 5.753907 2.625 0 5.175781-.511719 7.53125-1.488282l7.265624 7.269532c1.46875 1.46875 3.390626 2.199218 5.3125 2.199218 1.921876 0 3.84375-.730468 5.308594-2.199218 2.9375-2.933594 2.9375-7.6875.003906-10.621094l-7.28125-7.28125c2.9375-7.121094 1.523438-15.628906-4.25-21.40625 0 0 0 0-.003906 0-3.707031-3.710938-8.640625-5.753906-13.886718-5.753906zm-3.269532 22.910156c-.871094-.875-1.351562-2.035156-1.351562-3.269532 0-1.234374.480468-2.394531 1.351562-3.265624.875-.875 2.035156-1.355469 3.269532-1.355469 1.234374 0 2.394531.480469 3.269531 1.355469 1.800781 1.800781 1.796875 4.734374-.003907 6.535156-.871093.871094-2.03125 1.351562-3.265624 1.351562-1.234376 0-2.394532-.480468-3.269532-1.351562zm0 0"/><path d="m491.917969 310.6875h-14.65625c.742187-3.03125 1.125-6.15625 1.125-9.316406 0-20.929688-16.550781-38.066406-37.25-39.011719-2.019531-3.5-4.394531-6.773437-7.09375-9.792969 1.835937-4.617187 3.488281-9.308594 4.933593-14.058594 1.632813-5.367187-.496093-10.90625-5.300781-13.78125-4.792969-2.871093-10.675781-2.132812-14.628906 1.839844-11.121094 11.160156-24.335937 19.542969-39.277344 24.90625-29.148437 10.464844-61.328125 7.6875-88.292969-7.625-3.605468-2.046875-8.191406-.785156-10.242187 2.824219-2.046875 3.605469-.78125 8.191406 2.824219 10.238281 30.777344 17.476563 67.511718 20.644532 100.785156 8.699219 13.222656-4.75 25.265625-11.570313 35.929688-20.339844-7.625 19.824219-19.085938 38.199219-33.542969 53.667969-17.949219 19.207031-39.6875 33.484375-64.609375 42.429688-35.546875 12.761718-74.703125 12.898437-110.253906.390624-30.625-10.777343-57.488282-30.472656-76.898438-56.125h87.210938c12.917968 0 23.429687-10.511718 23.429687-23.429687s-10.511719-23.425781-23.429687-23.425781h-17.375c1.351562-4.445313 2.046874-9.085938 2.046874-13.792969 0-25.796875-20.695312-46.851563-46.355468-47.4375-10.867188-19.484375-30.210938-32.902344-52.019532-36.445313 6.875-23.640624 18.925782-45.671874 35.183594-64.136718 18.730469-21.277344 42.703125-37.351563 69.324219-46.496094 36.550781-12.546875 75.457031-11.925781 111.183594 1.515625-7.351563 1.195313-14.605469 3.070313-21.691407 5.613281-30.433593 10.925782-54.804687 33.242188-68.628906 62.832032-13.820312 29.601562-15.289062 62.625-4.125 92.984374 6.699219 18.234376 17.800782 34.746094 32.105469 47.75 1.4375 1.308594 3.246094 1.957032 5.050781 1.957032 2.042969 0 4.074219-.828125 5.558594-2.460938 2.789062-3.066406 2.566406-7.816406-.503906-10.605468-12.703125-11.550782-22.160156-25.621094-28.117188-41.824219-9.769531-26.574219-8.476562-55.5 3.640625-81.445313 12.113281-25.9375 33.457031-45.488281 60.097657-55.050781 7.433593-2.671875 15.082031-4.480469 22.832031-5.449219v20.363282c-44.03125 3.820312-78.699219 40.859374-78.699219 85.863281 0 47.535156 38.671875 86.207031 86.210938 86.207031 47.535156 0 86.207031-38.671875 86.207031-86.207031 0-45.003907-34.667969-82.042969-78.699219-85.863281v-22.101563c3.066406-1.355469 5.40625-4.097656 6.167969-7.539063 1.078125-4.863281-1.292969-9.800781-5.765625-12-43.253906-21.277343-92.15625-24.382812-137.699219-8.742187-10 3.429687-19.640625 7.777344-28.839844 12.921875-4.886719-4.5625-11.175781-7.390625-17.929687-7.960938-8.546875-14.042968-24.089844-22.230468-40.824219-21.1289058-22.007813 1.4414058-39.757813 19.1171878-41.285156 41.1210938-.34375 4.9375.121093 9.820312 1.359375 14.5h-1.613282c-12.03125 0-21.820312 9.789062-21.820312 21.820312s9.789062 21.820313 21.820312 21.820313h30.683594c-7.128906 12.898437-12.710937 26.652344-16.566406 40.910156-12.828125.671875-25.195312 4.695313-35.976562 11.761719-3.46875 2.273438-4.4375 6.929688-2.164063 10.398438s6.925781 4.4375 10.394531 2.164062c9.402344-6.160156 20.320313-9.414062 31.582032-9.414062.59375 0 1.183593.011718 1.773437.03125h.097656c21.539063.710937 41.175781 13.570312 50.386719 33.179687 1.335938 2.84375 4.304688 4.558594 7.433594 4.292969 1.019531-.085938 1.933594-.128906 2.777344-.128906 17.882812 0 32.433593 14.546874 32.433593 32.429687 0 4.796875-1.074219 9.492187-3.097656 13.789063h-12.757813c-4.148437 0-7.511718 3.363281-7.511718 7.511718 0 4.148438 3.363281 7.507813 7.511718 7.507813h46.203126c4.636718 0 8.40625 3.773437 8.40625 8.410156s-3.769532 8.40625-8.40625 8.40625h-199.25c-4.636719 0-8.410157-3.769531-8.410157-8.40625s3.773438-8.410156 8.410157-8.410156h70.796874c4.148438 0 7.511719-3.359375 7.511719-7.507813 0-4.148437-3.363281-7.511718-7.511719-7.511718h-48.382812c-4.019531-8-6.128906-16.863282-6.128906-25.878907 0-11.785156 3.539062-23.125 10.234375-32.796875 2.359375-3.410156 1.507812-8.089844-1.902344-10.449218-3.40625-2.363282-8.085937-1.511719-10.449219 1.898437-8.441406 12.195313-12.902344 26.492187-12.902344 41.347656 0 8.882813 1.625 17.652344 4.753907 25.878907h-6.019531c-12.917969 0-23.429688 10.511718-23.429688 23.429687s10.511719 23.425781 23.429688 23.425781h93.648437c21.46875 32.421875 53.382813 57.300782 90.300781 70.292969 19.203125 6.757813 39.363282 10.136719 59.535156 10.136719 20.589844 0 41.191407-3.519532 60.78125-10.554688 3.964844-1.421875 7.84375-2.984375 11.65625-4.652344h152.566407c11.074219 0 20.082031-9.007812 20.082031-20.082031s-9.007812-20.082031-20.082031-20.082031zm-82.332031-158.179688c0 39.257813-31.933594 71.191407-71.1875 71.191407-39.253907 0-71.191407-31.9375-71.191407-71.191407 0-39.253906 31.9375-71.1875 71.191407-71.1875 39.253906 0 71.1875 31.933594 71.1875 71.1875zm-330.105469-68.167968c-3.75 0-6.800781-3.050782-6.800781-6.800782s3.050781-6.800781 6.800781-6.800781h27.769531c4.148438 0 7.511719-3.363281 7.511719-7.511719 0-4.148437-3.363281-7.507812-7.511719-7.507812h-10.3125c-1.773438-4.21875-2.546875-8.796875-2.222656-13.460938 1.011718-14.539062 12.738281-26.222656 27.28125-27.171874 12.167968-.789063 23.382812 5.804687 28.558594 16.820312 1.335937 2.84375 4.300781 4.554688 7.429687 4.292969.488281-.042969.914063-.0625 1.296875-.0625 2.378906 0 4.667969.5625 6.726562 1.589843-12.148437 8.328126-23.300781 18.15625-33.121093 29.308594-4.832031 5.492188-9.324219 11.277344-13.453125 17.304688zm412.4375 251.492187h-125.058594c11.367187-7.585937 21.84375-16.472656 31.347656-26.636719 11.441407-12.246093 21.15625-26.164062 28.808594-41.140624 1.046875 1.628906 1.992187 3.324218 2.820313 5.089843 1.335937 2.84375 4.304687 4.550781 7.433593 4.289063.761719-.0625 1.4375-.097656 2.0625-.097656 13.25 0 24.035157 10.785156 24.035157 24.035156 0 3.222656-.65625 6.382812-1.894532 9.3125h-19.15625c-4.148437 0-7.507812 3.363281-7.507812 7.511718 0 4.148438 3.359375 7.507813 7.507812 7.507813h23.691406.011719 25.898438c2.792969 0 5.0625 2.273437 5.0625 5.0625 0 2.792969-2.269531 5.066406-5.0625 5.066406zm0 0"/><path d="m127.089844 253.792969c4.148437 0 7.507812-3.363281 7.507812-7.507813 0-4.148437-3.359375-7.511718-7.507812-7.511718h-11.300782c-4.148437 0-7.511718 3.363281-7.511718 7.511718 0 4.144532 3.363281 7.507813 7.511718 7.507813zm0 0"/></svg>